<svg t="1606305501417" class="icon" viewBox="0 0 1024 1024" version="1.1" xmlns="http://www.w3.org/2000/svg" p-id="4606" width="200" height="200"><path d="M0 0v1024h839.68V839.68h184.32V0H0z" fill="#e92100" p-id="4607" data-spm-anchor-id="a313x.7781069.0.i19" class=""></path><path d="M839.68 1024V839.68h184.32L839.68 1024z" fill="#d81e06" p-id="4608" data-spm-anchor-id="a313x.7781069.0.i23" class=""></path><path d="M482.3552 455.68a115.2 115.2 0 1 1-115.2 115.2 115.328 115.328 0 0 1 115.2-115.2m0-76.8a192 192 0 1 0 192 192 192 192 0 0 0-192-192z" fill="#ffffff" p-id="4609" data-spm-anchor-id="a313x.7781069.0.i17" class="selected"></path><path d="M488.73728 251.24736l72.16896-26.26688 102.1312 280.6016-72.16896 26.26816z" fill="#ffffff" p-id="4610" data-spm-anchor-id="a313x.7781069.0.i21" class="selected"></path><path d="M538.176 387.0848l52.6848 144.768L663.04 505.6a192.4992 192.4992 0 0 0-124.864-118.5152z" fill="#ffffff" p-id="4611" data-spm-anchor-id="a313x.7781069.0.i18" class="selected"></path><path d="M733.6448 271.36l-19.8784 74.176-211.5584-57.28-13.4784-37.0176 71.8208-26.2656L733.6448 271.36z" fill="#ffffff" p-id="4612" data-spm-anchor-id="a313x.7781069.0.i20" class="selected"></path><path d="M592.8704 312.8064l-31.9232-87.7184-0.192-0.0512-72.0256 26.2016 13.4784 37.0176 90.6624 24.5504z" fill="#ffffff" p-id="4613" data-spm-anchor-id="a313x.7781069.0.i22" class="selected"></path></svg>