<svg t="1611590851180" class="icon" viewBox="0 0 1024 1024" version="1.1" xmlns="http://www.w3.org/2000/svg" p-id="2666" width="32" height="32"><path d="M517.546667 91.733333A42.666667 42.666667 0 0 0 494.933333 85.333333h-4.266666a21.333333 21.333333 0 0 0-21.333334 21.333334v197.12a21.333333 21.333333 0 0 1-39.253333 11.52 305.92 305.92 0 0 0-104.106667-74.666667 20.053333 20.053333 0 0 0-18.346666 0 20.906667 20.906667 0 0 0-8.96 17.493333c-13.226667 120.746667-128 170.666667-128 341.333334a341.333333 341.333333 0 0 0 682.666666 0c0-267.946667-232.96-443.306667-335.786666-507.733334zM512 853.333333a170.666667 170.666667 0 0 1-170.666667-170.666666c0-115.2 116.053333-181.76 128-246.613334a10.666667 10.666667 0 0 1 11.946667-8.533333A281.173333 281.173333 0 0 1 682.666667 682.666667a170.666667 170.666667 0 0 1-170.666667 170.666666z" p-id="2667" fill="#d13f3f"></path></svg>