<svg t="1613887175837" class="icon" viewBox="0 0 1024 1024" version="1.1" xmlns="http://www.w3.org/2000/svg" p-id="1203" width="200" height="200"><path d="M512 97c-11.4 0-20.8 9.3-20.8 20.8v166c0 11.4 9.3 20.8 20.8 20.8s20.8-9.3 20.8-20.8v-166c0-11.5-9.4-20.8-20.8-20.8zM247.9 218.6c-8.1-8.1-21.3-8.1-29.3 0s-8.1 21.3 0 29.3L336 365.3c8.1 8.1 21.3 8.1 29.3 0s8.1-21.3 0-29.3L247.9 218.6zM304.5 512c0-11.4-9.3-20.8-20.8-20.8h-166c-11.4 0-20.8 9.3-20.8 20.8s9.3 20.8 20.8 20.8h166c11.5 0 20.8-9.4 20.8-20.8zM335.9 658.7L218.6 776.1c-8.1 8.1-8.1 21.3 0 29.3 8.1 8.1 21.3 8.1 29.3 0L365.3 688c8.1-8.1 8.1-21.3 0-29.3s-21.3-8-29.4 0zM512 719.5c-11.4 0-20.8 9.3-20.8 20.8v166c0 11.4 9.3 20.8 20.8 20.8s20.8-9.3 20.8-20.8v-166c0-11.5-9.4-20.8-20.8-20.8zM688.1 658.7c-8.1-8.1-21.3-8.1-29.3 0s-8.1 21.3 0 29.3l117.4 117.4c8.1 8.1 21.3 8.1 29.3 0 8.1-8.1 8.1-21.3 0-29.3L688.1 658.7zM906.3 491.3h-166c-11.4 0-20.8 9.3-20.8 20.8s9.3 20.8 20.8 20.8h166c11.4 0 20.8-9.3 20.8-20.8s-9.4-20.8-20.8-20.8zM688.1 365.3l117.4-117.4c8.1-8.1 8.1-21.3 0-29.3s-21.3-8.1-29.3 0L658.7 335.9c-8.1 8.1-8.1 21.3 0 29.3s21.3 8.1 29.4 0.1z" p-id="1204" fill="#2c2c2c"></path></svg>