<svg t="1612510237219" class="icon" viewBox="0 0 1024 1024" version="1.1" xmlns="http://www.w3.org/2000/svg" p-id="5514" width="200" height="200"><path d="M709.98223 0H313.653832A181.968961 181.968961 0 0 0 131.684871 181.968961v659.69814a182.575524 182.575524 0 0 0 181.968961 181.968961h396.328398a182.575524 182.575524 0 0 0 181.968961-181.968961V181.968961a181.968961 181.968961 0 0 0-181.968961-181.968961z m100.204241 753.472811H213.813529V181.968961A100.446866 100.446866 0 0 1 313.653832 82.128658h396.328398A100.325554 100.325554 0 0 1 810.186471 181.968961zM213.813529 835.601469h596.372942v6.065632a100.204241 100.204241 0 0 1-100.204241 100.082929H313.653832a100.325554 100.325554 0 0 1-100.204241-100.082929z" fill="#ea4848" p-id="5515"></path><path d="M469.540576 909.116929h84.918848a24.262528 24.262528 0 1 0 0-49.374244h-84.918848a24.262528 24.262528 0 0 0 0 49.374244z" fill="#ea4848" p-id="5516"></path></svg>