<svg t="1607059722858" class="icon" viewBox="0 0 1045 1024" version="1.1" xmlns="http://www.w3.org/2000/svg" p-id="7981" data-spm-anchor-id="a313x.7781069.0.i12" width="200" height="200"><path d="M401.291675 679.894955c-23.530062 0-40.514167-18.9302-40.514167-44.937111V388.865238c0-26.006911 16.984105-44.937111 40.514167-44.937111 8.315135 0 16.63027 2.476849 24.945404 7.076711l213.185902 123.134761c15.214927 8.845888 24.060815 22.645473 24.060815 37.683483 0 15.214927-8.845888 29.014513-24.060815 37.860401l-213.185902 123.134762c-8.315135 4.77678-16.63027 7.07671-24.945404 7.07671z m0 0" p-id="7982" data-spm-anchor-id="a313x.7781069.0.i11" class="" fill="#d81e06"></path><path d="M512.219111 1024c-136.757429 0-265.376641-53.252246-361.973739-150.026261C53.471357 777.199724 0.219111 648.757429 0.219111 512s53.252246-265.376641 150.026261-361.973739C246.84247 53.252246 375.461682 0 512.219111 0s265.376641 53.252246 361.973739 150.026261c96.774015 96.774015 150.026261 225.21631 150.026261 361.973739s-53.252246 265.376641-150.026261 361.973739c-96.774015 96.774015-225.21631 150.026261-361.973739 150.026261z m0-1006.308224C239.588841 17.691776 17.910887 239.36973 17.910887 512c0 272.63027 221.677954 494.308224 494.308224 494.308224 272.63027 0 494.308224-221.677954 494.308224-494.308224 0-272.63027-221.854872-494.308224-494.308224-494.308224z" p-id="7983" data-spm-anchor-id="a313x.7781069.0.i13" class="selected" fill="#ffffff"></path></svg>