<svg t="1607092984490" class="icon" viewBox="0 0 1024 1024" version="1.1" xmlns="http://www.w3.org/2000/svg" p-id="8223" width="200" height="200"><path d="M195.68 960c-14.19 0-28.37-3.73-41.31-11.2-25.86-14.93-41.3-41.68-41.3-71.54V146.74c0-29.86 15.44-56.61 41.3-71.54s56.74-14.94 82.6 0l632.66 365.27c25.86 14.93 41.3 41.66 41.3 71.52 0.01 29.87-15.43 56.61-41.3 71.54L236.97 948.8c-12.93 7.47-27.12 11.2-41.29 11.2z m0.13-840.9c-6.35 0-11.39 2.33-13.91 3.78-4.13 2.39-13.77 9.5-13.77 23.85v730.53c0 14.34 9.63 21.46 13.77 23.85 4.14 2.39 15.1 7.17 27.53 0L842.1 535.85c12.43-7.18 13.77-19.07 13.77-23.85 0-4.78-1.34-16.67-13.77-23.84L209.44 122.89c-4.88-2.81-9.53-3.79-13.63-3.79z m660.05 440.59h0.14-0.14z" fill="#ffffff" p-id="8224"></path></svg>